<?xml version="1.0" encoding="UTF-8" ?>
<!DOCTYPE svg PUBLIC "-//W3C//DTD SVG 1.1//EN" "http://www.w3.org/Graphics/SVG/1.1/DTD/svg11.dtd">
<svg width="141px" height="20px" viewBox="0 0 409 58" version="1.1" xmlns="http://www.w3.org/2000/svg">
<g id="#0678beff">
<path fill="#0678be" opacity="1.00" d=" M 0.76 0.76 C 8.05 1.06 15.68 -0.30 22.64 2.54 C 33.49 6.86 41.41 18.21 40.54 30.04 C 40.68 41.42 32.62 51.97 22.13 55.90 C 15.29 58.50 7.88 57.19 0.75 57.50 C 0.75 38.58 0.75 19.67 0.76 0.76 M 12.30 12.09 C 12.18 23.43 12.28 34.77 12.26 46.10 C 21.23 45.98 29.30 38.03 29.03 28.96 C 29.09 20.02 21.15 12.31 12.30 12.09 Z" />
<path fill="#0678be" opacity="1.00" d=" M 45.51 57.50 C 45.50 38.58 45.49 19.67 45.51 0.75 C 52.33 0.75 59.15 0.75 65.97 0.74 C 76.49 0.52 85.97 10.49 85.29 20.98 C 85.48 28.99 79.96 36.25 72.76 39.33 C 76.98 45.38 81.21 51.43 85.43 57.49 C 80.69 57.52 75.96 57.48 71.22 57.52 C 66.42 50.82 61.81 43.98 57.01 37.27 C 56.98 44.02 57.01 50.76 57.00 57.50 C 53.17 57.50 49.34 57.50 45.51 57.50 M 57.01 12.25 C 56.99 17.83 57.00 23.41 57.00 29.00 C 61.76 28.60 67.75 30.46 71.34 26.33 C 74.58 23.32 74.51 17.72 71.21 14.78 C 67.56 10.83 61.73 12.65 57.01 12.25 Z" />
<path fill="#0678be" opacity="1.00" d=" M 91.00 0.75 C 94.92 0.75 98.83 0.75 102.75 0.76 C 102.76 12.19 102.74 23.62 102.76 35.05 C 102.70 40.21 106.86 44.94 111.90 45.79 C 118.30 47.25 125.17 41.63 125.01 35.07 C 125.00 23.63 124.99 12.19 125.00 0.75 C 128.92 0.75 132.83 0.75 136.75 0.76 C 136.75 12.17 136.76 23.59 136.75 35.00 C 136.80 41.47 133.83 47.78 128.92 51.96 C 123.45 57.19 115.22 58.59 108.02 56.90 C 101.62 55.27 96.17 50.58 93.25 44.70 C 91.29 40.77 90.98 36.30 90.99 31.98 C 91.01 21.57 90.99 11.16 91.00 0.75 Z" />
<path fill="#0678be" opacity="1.00" d=" M 142.76 0.76 C 149.86 0.76 156.96 0.73 164.06 0.75 C 169.80 0.82 175.21 3.96 178.66 8.46 C 183.09 13.91 183.93 21.81 181.34 28.26 C 178.43 35.08 171.56 40.37 164.01 40.49 C 160.84 40.56 157.67 40.47 154.50 40.51 C 154.50 46.17 154.51 51.84 154.49 57.50 C 150.58 57.50 146.67 57.50 142.75 57.50 C 142.75 38.58 142.75 19.67 142.76 0.76 M 154.49 12.27 C 154.51 17.84 154.49 23.42 154.50 28.99 C 157.95 28.89 161.43 29.28 164.85 28.76 C 170.39 27.47 173.22 20.08 169.45 15.62 C 165.99 10.77 159.53 12.54 154.49 12.27 Z" />
<path fill="#0678be" opacity="1.00" d=" M 212.35 0.44 C 220.97 19.45 229.47 38.51 238.08 57.52 C 233.91 57.49 229.75 57.49 225.59 57.51 C 224.29 54.69 223.04 51.85 221.78 49.01 C 215.51 48.99 209.24 49.00 202.97 49.00 C 201.69 51.83 200.42 54.66 199.16 57.50 C 194.99 57.50 190.82 57.50 186.66 57.50 C 195.26 38.50 203.68 19.41 212.35 0.44 M 208.17 37.51 C 210.97 37.50 213.77 37.50 216.57 37.51 C 215.14 34.41 213.77 31.29 212.38 28.18 C 210.91 31.26 209.54 34.38 208.17 37.51 Z" />
<path fill="#0678be" opacity="1.00" d=" M 240.25 0.76 C 244.16 0.75 248.08 0.75 252.00 0.75 C 252.01 15.83 252.00 30.92 252.00 46.00 C 259.50 46.00 267.00 46.00 274.50 46.00 C 274.50 49.83 274.50 53.67 274.50 57.50 C 263.09 57.51 251.67 57.49 240.26 57.51 C 240.23 38.59 240.26 19.68 240.25 0.76 Z" />
</g>
<g id="#e1571aff">
<path fill="#e1571a" opacity="1.00" d=" M 280.00 0.75 C 291.42 0.75 302.83 0.75 314.24 0.76 C 314.25 4.59 314.25 8.42 314.24 12.25 C 306.64 12.30 299.04 12.14 291.45 12.33 C 291.52 15.97 291.50 19.61 291.50 23.24 C 297.16 23.25 302.83 23.25 308.49 23.24 C 308.50 27.16 308.50 31.08 308.50 35.00 C 302.83 35.00 297.17 35.00 291.50 35.00 C 291.50 38.67 291.50 42.33 291.50 46.00 C 299.08 46.01 306.66 45.99 314.25 46.00 C 314.25 49.83 314.25 53.66 314.25 57.50 C 302.83 57.50 291.42 57.50 280.00 57.50 C 280.00 38.58 280.00 19.67 280.00 0.75 Z" />
<path fill="#e1571a" opacity="1.00" d=" M 319.09 0.78 C 323.54 0.72 327.98 0.77 332.43 0.73 C 335.69 6.21 338.78 11.79 341.96 17.31 C 345.11 11.79 348.29 6.30 351.38 0.75 C 355.87 0.75 360.36 0.74 364.85 0.76 C 359.46 10.20 354.05 19.64 348.67 29.09 C 354.03 38.58 359.47 48.03 364.84 57.52 C 360.36 57.49 355.89 57.51 351.41 57.49 C 348.26 51.98 345.15 46.44 341.94 40.97 C 338.70 46.45 335.70 52.06 332.43 57.53 C 327.98 57.47 323.53 57.52 319.08 57.48 C 324.48 48.04 329.80 38.55 335.22 29.12 C 329.87 19.66 324.48 10.22 319.09 0.78 Z" />
<path fill="#e1571a" opacity="1.00" d=" M 368.50 0.75 C 375.99 0.81 383.49 0.63 390.97 0.82 C 401.15 1.78 409.44 11.82 408.28 22.04 C 408.02 31.92 398.95 40.68 389.05 40.51 C 386.03 40.54 383.02 40.47 380.01 40.49 C 379.98 46.16 380.01 51.83 380.00 57.50 C 376.16 57.50 372.33 57.50 368.50 57.50 C 368.50 38.58 368.50 19.67 368.50 0.75 M 380.01 12.25 C 379.99 17.83 380.00 23.41 380.00 29.00 C 383.07 28.95 386.14 29.13 389.22 28.93 C 392.40 28.66 395.31 26.37 396.27 23.31 C 398.14 18.66 394.60 12.99 389.69 12.37 C 386.47 12.07 383.23 12.31 380.01 12.25 Z" />
</g>
</svg>